<svg width="221" height="60" xmlns="http://www.w3.org/2000/svg"><g transform="translate(-360-13) translate(360,13)" fill="#fff" stroke="none" fill-rule="evenodd"><path d="M3.7,14.8c.1-.4,0-.3-.1.2C3.7,14.8,3.7,14.8,3.7,14.8"/><path d="M56.2,14.8c0,0,0,0,.1.2c-.1-.5-.2-.6-.1-.2"/><path d="M60,32.5c0-1,0-1.9-.1-2.8c-1.2,2.1-2.6,3.9-3.8,5.4c0-.1.3-1,.3-1c1.4-1.7,2.3-3.1,3.6-5.4C59.8,27.4,59.6,26,59.5,25.9c-.7,1.8-1.7,4-2.6,5.7c.1-.5.3-2,.4-2.5c.3-.5,1-2,1.9-4.1C58.2,19.3,56.7,15.8,56.3,15C57,17.6,59.3,31.8,51.1,43.7C46,51,38.4,55.2,30,57.5C21.5,55.2,14,51,8.9,43.7C.7,31.8,3,17.6,3.6,15C3.2,15.8,1.7,19.3.8,25C1.6,27.1,2.4,28.6,2.6,29.1c.1.5,.3,2,.4,2.5C2.1,29.9,1.1,27.8.4,25.9C.4,26,.1,27.4,0,28.6c1.3,2.3,2.3,3.7,3.6,5.4c0,.1.3,1,.3,1C2.7,33.6,1.3,31.7.1,29.7C0,30.6,0,31.5,0,32.5C1.4,34.2,2.7,35.7,4.8,37.6c.1.1,.1.2,.2.6C3.3,36.9,1.6,35.4.3,34c0,.8.1,1.5.1,2C2.2,38,4.1,39.5,6.3,41c.2.4,.1.2,.4.8C4.6,40.5,2.8,39.2,1,37.6c.2,1.1.4,1.8.5,2.3c2,1.6,4.1,2.9,6.4,4c0,0,.5.7,.5.7c-2.2-1-4.3-2.1-6.3-3.6C2.2,41.3,2.7,43,2.9,43.4c3,2,5.1,2.9,7.5,3.8c.1.1,.2.2,.5.5C8.2,46.8,6.1,45.8,3.7,44.4c.2.5,.5,1.2,1,2.3c2.8,1.5,5.7,2.6,8.2,3.2l.5.5c-2.6-.4-5.1-1.1-8.3-2.5c.7,1.2,1.1,1.8,1.5,2.4c3,1.2,6.2,1.8,9.2,2.1l.5.4C12.9,52.6,10.5,52.1,7.8,51.4c.1.1,.9,1.4,1.6,2.2c3.7.8,6.6,1,9.6.9c.8.5,.6.4,1,.6c-3.6.2-6.6-.1-9.5-.7c.5.6,1.1,1.3,2.1,2.5c2.9.4,7.6.8,11.6.3c1,.4,1.9.8,2.9,1.1c-.8.2-1.6.4-2.5.5c.6.4,1.3.8,1.9,1.2c1.1-.3,2.2-.5,3.3-.9c1.1.3,2.2.6,3.3.9c.6-.4,1.3-.8,1.9-1.2c-.8-.2-1.6-.3-2.5-.5c1-.3,1.9-.7,2.9-1.1c4.1.5,8.7.1,11.6-.3c1.1-1.1,1.6-1.9,2.1-2.5c-2.9.6-5.9.9-9.5.7c.4-.2.1-.1,1-.6c3,.1,5.9,0,9.6-.9c.6-.8,1.5-2.1,1.6-2.2C49.4,52.1,47,52.6,43.6,52.7l.5-.4c3-.2,6.2-.9,9.2-2.1C53.7,49.6,54.1,49.1,54.8,47.8c-3.2,1.5-5.7,2.1-8.3,2.5l.5-.5c2.6-.6,5.4-1.6,8.2-3.2c.6-1.1.9-1.8,1-2.3c-2.4,1.5-4.5,2.5-7.2,3.3c.3-.3.3-.4.5-.5c2.4-.9,4.6-1.8,7.5-3.8C57.2,43,57.7,41.3,57.8,41C55.8,42.5,53.8,43.6,51.5,44.6c0,0,.5-.7.5-.7C54.4,42.7,56.5,41.4,58.4,39.8c.1-.4.3-1.1.5-2.3c-1.8,1.6-3.6,3-5.7,4.2c.3-.6.2-.4.4-.8c2.2-1.4,4.1-3,5.9-4.9c0-.5.1-1.2.1-2c-1.3,1.4-3,2.9-4.7,4.1c.2-.4.2-.5.2-.6c2.1-1.8,3.4-3.4,4.8-5.1"/><path d="M13.9,23.9c.2-1.3.4-2.2.7-2.9c.3-.6.7-1.1,1.3-1.3C16.4,19.5,17.2,19.3,18.2,19.3h9.3l-1.8,2.4c-2.3,3.1-4.3,6-5.8,8.7c-.5.8-.9,1.7-1.4,2.9c-.4.8-.7,1.9-.9,3.1h4.9c.1-1,.3-2,.5-3.1c.4-2,.9-4,1.6-6C24.9,26,25.3,24.8,25.7,23.8c.4-1.1,1-2.1,1.6-3.2c.6-1.1,1.4-2.4,2.3-3.9l.4-.7V15.4H14.4l-1,8.5h.5z"/><path d="M32.9,25c.7-.3,1.3-.6,1.9-.7c.6-.1,1.2-.2,1.9-.2c1,0,1.9.2,2.7.7c.8.5,1.3,1.1,1.7,2c.4.9,.6,1.9.6,3.2c0,2.1-.4,3.7-1.3,4.7C39.5,35.7,38.1,36.2,36.3,36.2c-1,0-1.9-.1-2.8-.4C32.6,35.5,32.2,35.2,32.2,34.9c0-.2.2-.4.6-.6c.9-.5,1.4-1.2,1.4-2.1c0-.4-.1-.8-.3-1.2c-.2-.4-.5-.6-.9-.8C32.6,29.9,32.2,29.8,31.7,29.8c-.7,0-1.3.2-1.8.7c-.5.5-.7,1.1-.7,1.8c0,.6.2,1.2.5,1.8s.9,1,1.6,1.4c.6.3,1.4.6,2.5.8c1,.2,2.1.3,3.1.3c3.5,0,6.2-.9,8-2.7c1.2-1.1,1.7-2.4,1.7-4c0-.7-.2-1.5-.5-2.2c-.3-.7-.8-1.4-1.3-1.9C44.3,25.4,43.6,25,42.9,24.6c-.7-.4-1.6-.6-2.5-.8C39.5,23.6,38.5,23.5,37.4,23.5c-1.2,0-2.2.1-3.1.4c-.9.3-2,.8-3.4,1.6l.9-6.1c1.5.2,2.9.3,4.1.3s2.5-.1,3.6-.4c1.1-.2,2.1-.6,3.1-1c.8-.4,1.4-.8,1.9-1.3c.5-.4,1-1,1.5-1.8l-.1-.4c-.7.2-1.4.3-2.1.5c-.7.1-1.5.2-2.3.3c-.8.1-1.7.1-2.6.1c-1.9,0-3.6-.1-5.1-.4C33.2,15.4,32.6,15.2,31.9,15L30.3,26.3h.5c.7-.5,1.4-.9,2.1-1.3"/><path d="M8.2,9.4C8.4,9.1,8.6,8.6,8.7,8.3C10.2,7.8,11.1,7.6,11.6,7.5L7.2,10.6C7.7,10.1,8,9.8,8.2,9.4M6.5,9L7.8,8.1C7.8,8.8,7.2,9.6,6.1,10.4c.5.2,.5.2,.7.4C6.5,11,6.5,11,6.3,11.1l.5.7C7.1,11.7,7.3,11.5,7.6,11.3L11.3,8.7,12.8,10.9c.1.1,.1.2-.2.4c-.3.2-.4.3-.8.5c.3.2,.5.3,.7.5c.2-.1.4-.3.6-.4c.8-.6.9-.9.5-1.5L12,8.2,12.1,8.1C12.4,7.9,12.7,7.7,12.9,7.6L12.4,6.8C12.3,7,12.1,7.1,11.9,7.3L11.8,6.5c-.9.3-2,.7-2.9,1c-.1.1-.2.1-.3.1C8.6,7.6,8.6,7.6,8.6,7.5L10.4,6.3C10.7,6.1,11,5.9,11.2,5.8L10.7,5.1C10.5,5.2,10.2,5.4,9.9,5.7L8.3,6.8c0-.1,0-.1-.1-.1C8.2,6.5,8.2,6.5,8.1,6.5C8.1,6.3,8,6.3,8,6.2l-.8.5c.1.1,.2.2,.2.3C7.4,7.1,7.5,7.2,7.6,7.3L6.1,8.3C5.7,8.7,5.5,8.7,5.2,8.9L5.7,9.6C6,9.4,6.2,9.3,6.5,9"/><path d="M9.5,12.3l-.4-.6,1.4-1,.4.6-1.4,1zM12.1,11.4C12,11.2,11.9,11.1,11.7,10.8L11.2,10.1C11,9.8,10.9,9.7,10.8,9.5C10.7,9.6,10.6,9.7,10.2,9.9l-1.7,1.2C8.2,11.3,8.1,11.4,7.9,11.6c.1.1,.3.3,.4.5l.7,1c.2.3,.3.5,.4.7L10.2,13.2,9.9,12.9,11.5,11.8c.2-.1.4-.3.6-.4z"/><path d="M19.7,2.2l.1.5-.2,0C19.5,2.7,19.4,2.7,19.3,2.7C19.5,2.5,19.6,2.4,19.7,2.2zM21.1,1.7l.1.6-.6.1-.1-.6.6-.1zm.4,1.9L20.9,3.8,20.8,3.2,21.4,3.1,21.5,3.7zM22.5,1.5l.1.6-.6.1-.1-.6.6-.1zM22.9,3.4L22.3,3.5,22.1,2.9,22.8,2.8,22.9,3.4zM23.9,1.2L24,1.8,23.4,1.9,23.2,1.3,23.9,1.2zm.4,1.9L23.6,3.3,23.5,2.7,24.2,2.5,24.3,3.1zm.1,1.3L23.3,4.6c-.3.1-.4.1-.6.1L22.7,5,22.3,4.7c-.1,0-.3.1-.5.1L21.2,5C21.3,4.8,21.3,4.7,21.4,4.5l2.9-.6.1,.5zM18.8,2.8l.2.8c.2-.1.4-.1.8-.2l.2,0,.1.6-.5.1C19.3,4.2,19,4.2,18.8,4.2l.2.8C19.2,4.9,19.4,4.9,19.7,4.8l.7-.1C20.4,4.8,20.4,4.9,20.3,5C20.1,5.5,19.7,5.9,19.1,6.4C19.4,6.6,19.5,6.7,19.7,6.9C20.2,6.5,20.4,6.3,20.7,5.8L21.8,5.6C21.7,5.9,21.6,6.1,21.5,6.3C21.3,6.2,21.1,6.1,20.8,6L20.4,6.5c.2.1,.4.2,.6.4C20.6,7.3,20.4,7.5,19.6,8c.3.2,.4.3,.7.6C21.2,8,21.7,7.4,22.2,6.7C22.4,6.3,22.5,6,22.8,5.2l.1.3c.2-.1.3-.1.6-.1l1.1-.2.2,.8-.9.2,0-.2C23.8,5.7,23.8,5.6,23.9,5.5L23,5.6C23,5.7,23,6,23,6.1L22.9,6.5c0,.3,0,.3-.1.6C23.2,7,23.5,6.9,23.7,6.9L24.9,6.6,24.9,6.9c0,.2.1,.5.1,.7L26,7.4c-.1-.2-.1-.4-.2-.6L25.7,6.5,26.4,6.3c.2,0,.4-.1.6-.1L26.8,5.4C26.7,5.5,26.5,5.5,26.2,5.6L25.6,5.7,25.4,4.9,25.8,4.9C26.1,4.8,26.2,4.8,26.4,4.8L26.3,4c-.2.1-.3.1-.6.2L25.3,4.2,25.2,3.7,25.6,3.6C26,3.5,26.2,3.5,26.5,3.5L26.3,2.7C26.1,2.8,25.8,2.8,25.5,2.9L25.1,3,25,2.4,25.1,2.3C25.5,2.2,25.7,2.2,25.9,2.2L25.8,1.4C25.6,1.5,25.4,1.5,24.9,1.6l-.1,0-.1-.6.1,0C25.1.9,25.3.9,25.5.9L25.4.1C25.2.2,25,.2,24.5.3L20.4,1.1C20.5,1,20.5.9,20.6.8C20.6.6,20.6.6,20.7.6L19.7.6C19.6,1.1,19.2,1.7,18.5,2.4c.2.1,.5.2,.7.4C19,2.8,19,2.8,18.8,2.8z"/><path d="M35.9,5.6L35.7,6.8C35.6,6.9,35.6,6.9,35.2,6.9C34.9,6.8,34.6,6.7,34.2,6.6c.1.3,.1.5,.1.9c.4.1,.7.2,.7.2C35.8,7.9,36.1,7.9,36.3,7.7C36.4,7.6,36.5,7.5,36.5,7.2l.3-1.4,2.1.5c.4.1,.8.2,1,.3L40.2,5.6C39.9,5.5,39.5,5.5,39.1,5.4L37,4.9,37,4.9C37.7,4.7,38.2,4.5,38.9,4.1C39.1,4,39.1,4,39.2,3.9L38.9,3.3C38.7,3.3,38.6,3.3,38.3,3.2l-2.7-.6C35.2,2.6,35,2.5,34.7,2.4L34.6,3.2c.3,0,.5.1,.8.1l2.3.5c-.4.2-.7.4-1.1.5L36.2,4.2c0,.1,0,.3-.1.5L36.1,4.8,33.9,4.3C33.5,4.2,33.2,4.1,32.9,4L32.7,4.9c.3,0,.6.1,1,.2l2.2.5z"/><path d="M34.4,1.8l5.3,1.1-.3,1.3.9,.2C40.3,4.2,40.4,4,40.4,3.8L40.6,3C40.6,2.7,40.7,2.5,40.7,2.3C40.4,2.3,40.3,2.3,39.7,2.1L39.4,2.1c.2-.2.6-.5.8-.9L39.4.8C39.2,1.1,39.1,1.2,38.7,1.5C38.6,1.7,38.5,1.8,38.4,1.9L37.7,1.7C37.7,1.2,37.6,1,37.4.3L36.5.4C36.7.8,36.8,1.1,36.8,1.5L35.9,1.3C35.8.8,35.7.4,35.4,0L34.6.1C34.8.5,34.9.7,35,1.1L34.6,1c-.5-.1-.6-.1-1-.2C33.6,1,33.6,1.2,33.5,1.5L33.4,2.2c-.1.3-.1.4-.2.6l.9.2,.3-1.3z"/><path d="M51,11.5l.6.4c.3.2,.5.3,.6.5l.5-.7C52.5,11.7,52.4,11.6,52,11.3L49.5,9.5C49.3,9.3,49.1,9.2,48.9,9L48.4,9.7c.2.1,.3.2,.7.4l.1,0c-.3.3-.3.3-.3.4c-.3.3-.6.5-1,.6c-.5.2-1.1.1-1.8-.1c.1.4,.1.6,0,.9c1,.2,1.6.2,2.2-.1c.6-.2,1-.6,1.6-1.3l.4.3-1.5,2.1c-.3.4-.1.7,.6,1.2c.9.6,1.1.6,2.2-.6C51.3,13.4,51.2,13.3,51,13c-.4.5-.6.7-.7.8c-.1.1-.2.1-.5-.1C49.6,13.5,49.6,13.4,49.7,13.3l1.3-1.8z"/><path d="M50.6,7.8l2.5,1.8-.4.5C52.6,10.1,52.5,10,52.3,9.8L50.7,8.7C50.5,8.5,50.4,8.4,50.3,8.3L50.6,7.8zM45.5,10.6l3.3-4.6.7,.5C49,6.8,48.4,7.2,47.9,7.5c0,.4,0,.6,0,.9C47.8,8.8,47.7,9.1,47.5,9.4C47.3,9.6,47.3,9.6,47,9.5C46.9,9.4,46.8,9.3,46.7,9.2c0,.3-.1.5-.4.9c.3.2,.5.3,.7.4c.4.1,.7,0,1-.4C48.3,9.8,48.4,9.4,48.5,9.1C48.6,8.8,48.7,8.5,48.7,8C49.6,7.4,49.6,7.4,50.1,7.1C50.1,7.1,50.1,7.1,50.1,7C50.1,7.1,50.1,7.1,50.1,7.2l-.4.5c-.1.1-.2.3-.3.4C49.3,8.1,49.3,8.1,49.3,8.2L49.9,8.6,49.7,9C49.9,9,50,9.2,50.2,9.3l1.6,1.1c.2.1,.4.3,.5.4l.2-.3.6,.5c.1-.2.2-.3.3-.5L53.9,9.9c.2-.3.3-.3.4-.5C54.1,9.4,53.9,9.3,53.7,9.1L52.7,8.3C52.8,8,52.8,7.8,52.8,7.4L52,7.1c0,.3,0,.5-.1.7L51,7.2C50.8,7,50.6,6.8,50.5,6.8c.1,0,.1-.1.1-.1L50.6,6.1C50.5,6.1,50.4,6,50.1,5.8L49.1,5.1C48.9,4.9,48.8,4.8,48.7,4.7C48.5,4.9,48.4,5.1,48.2,5.4L44.9,10.1C44.6,10.4,44.5,10.6,44.3,10.8l.8.5c.1-.2.3-.4.5-.8z"/><path d="M13.9,40.6c.1,0,.2-.1.4-.1c0,0,.1,0,.1-.1c0,0,0-.1,0-.1c-.1,0-.3,0-.4,0c-.1,0-.3,0-.4,0c-.1,0-.3,0-.4,0C12.9,40.3,12.8,40.3,12.6,40.3c0,0,0,.1,0,.1c0,0,0,.1,0,.1s0,0,.1,0c.2,0,.3.1,.4.1c.1,0,.1.1,.1.2v3.5c0,.1,0,.2-.1.2c-.1,0-.2.1-.4.1c0,0-.1,0-.1.1c0,0,0,.1,0,.1c.1,0,.3,0,.4,0c.1,0,.3,0,.4,0c.1,0,.3,0,.4,0c.1,0,.3,0,.4,0c0,0,0-.1,0-.1c0-.1,0-.1-.1-.1c-.2,0-.3-.1-.4-.1C13.8,44.5,13.8,44.4,13.8,44.3V40.8c0-.1,0-.2.1-.2"/><path d="M18.5,44.8c0,.1.1,.1.1,.1c0,0,.1,0,.1,0c0,0,0,0,.1,0c0,0,0,0,0,0V40.8c0-.1,0-.2.1-.2c.1,0,.2-.1.3-.1c0,0,.1,0,.1-.1c0,0,0-.1,0-.1c-.1,0-.2,0-.3,0c-.1,0-.2,0-.3,0c-.1,0-.2,0-.3,0c-.1,0-.2,0-.4,0c0,0,0,.1,0,.1c0,.1,0,.1.1,.1c.2,0,.3.1,.4.1c.1,0,.1.1,.1.2V43.7L16,40.4c0,0-.1-.1-.1-.1c0,0-.1,0-.3,0c-.1,0-.1,0-.2,0C15.4,40.3,15.3,40.3,15.2,40.3C15.1,40.3,15,40.3,14.9,40.3c0,0,0,0,0,0c0,0,0,0,0,.1c0,.1,0,.1.1,.1c.2,0,.3.1,.3.1c.1,0,.1.1,.1.2v3.5c0,.1,0,.2-.1.2c-.1,0-.2.1-.3.1c-.1,0-.1,0-.1.1c0,0,0,.1,0,.1c.1,0,.2,0,.3,0c.1,0,.2,0,.3,0c.1,0,.2,0,.3,0c.1,0,.2,0,.3,0c0,0,0-.1,0-.1c0-.1,0-.1-.1-.1C16,44.6,15.9,44.6,15.8,44.5c-.1,0-.1-.1-.1-.2V41.1l2.8,3.7z"/><path d="M22.1,44.3c-.1.1-.2.1-.3.2c-.1,0-.2.1-.4.1c-.3,0-.6-.1-.8-.2c-.2-.2-.3-.4-.4-.7c0-.1,0-.1-.1-.1c0,0-.1,0-.1,0c0,0-.1,0-.1,0c0,.2.1,.4.1,.5c0,.2,0,.4.1,.6c.2.1,.4.2,.6.2c.2.1,.5.1,.8.1c.3,0,.5,0,.7-.1c.2-.1.3-.2.5-.3c.1-.1.2-.3.3-.4c.1-.2.1-.3.1-.5c0-.3-.1-.6-.3-.8C22.4,42.6,22.1,42.4,21.6,42.2c-.4-.1-.6-.3-.8-.4C20.7,41.6,20.6,41.5,20.6,41.2c0-.1,0-.2.1-.3c0-.1.1-.2.2-.2s.2-.1.3-.1c.1,0,.2,0,.3,0c.3,0,.5.1,.7.2c.2.1,.3.3,.4.6c0,0,0,.1.1,.1c0,0,.1,0,.1,0c0,0,.1,0,.1,0C22.7,41.3,22.7,41.1,22.7,41C22.7,40.8,22.7,40.7,22.7,40.5c-.2-.1-.5-.2-.7-.2C21.8,40.3,21.6,40.3,21.4,40.3c-.2,0-.4,0-.6.1c-.2.1-.3.2-.4.3c-.1.1-.2.2-.3.4c-.1.1-.1.3-.1.5c0,.2,0,.4.1,.5C20.2,42.1,20.3,42.3,20.4,42.4c.1.1,.3.2,.4.3c.2.1,.3.2,.5.2c.3.1,.5.2,.7.4c.2.1,.2.3,.2.6c0,.1,0,.2-.1.3c0,.1-.1.2-.2.2"/><path d="M26.5,40.6c.1,0,.3,0,.3,0c.1,0,.2.1,.2.1s.1.1,.2.2c0,.1.1,.2.2,.3c0,0,0,0,0,0s0,0,.1,0c0,0,.1,0,.1,0c0,0,0,0,.1,0c-.1-.2-.1-.3-.1-.4C27.5,40.8,27.5,40.7,27.5,40.6C27.5,40.5,27.5,40.4,27.4,40.4c0,0-.1-.1-.1-.1c0,0-.1,0-.1,0c-.1,0-.1,0-.2,0c-.1,0-.1,0-.2,0c-.1,0-.1,0-.2,0H24.3c-.1,0-.1,0-.2,0C24.1,40.3,24,40.3,23.9,40.3C23.9,40.3,23.8,40.3,23.7,40.3c-.1,0-.1,0-.1,0c0,0-.1,0-.1.1c0,0,0,.1-.1.2c0,.1,0,.2-.1.3s-.1.3-.1.4c0,0,.1,0,.1,0c0,0,0,0,.1,0c0,0,0,0,0,0c.1-.1.1-.2.2-.3c.1-.1.1-.2.2-.2c.1-.1.1-.1.2-.1c.1,0,.2,0,.3,0h.7v3.7c0,.1,0,.2-.1.2C24.9,44.6,24.8,44.6,24.6,44.6C24.5,44.6,24.5,44.7,24.5,44.7c0,0,0,.1,0,.1c.1,0,.3,0,.5,0c.2,0,.3,0,.5,0c.2,0,.3,0,.5,0c.2,0,.3,0,.5,0c0,0,0-.1,0-.1c0-.1,0-.1-.1-.1C26.2,44.6,26,44.6,25.9,44.5C25.8,44.5,25.8,44.4,25.8,44.3V40.6h.7z"/><path d="M29.3,40.6c.1,0,.2-.1.4-.1c0,0,.1,0,.1-.1c0,0,0-.1,0-.1c-.1,0-.3,0-.4,0c-.1,0-.3,0-.4,0c-.1,0-.3,0-.4,0C28.3,40.3,28.2,40.3,28,40.3c0,0,0,.1,0,.1c0,0,0,.1,0,.1s0,0,.1,0c.2,0,.3.1,.4.1c.1,0,.1.1,.1.2v3.5c0,.1,0,.2-.1.2c-.1,0-.2.1-.4.1c0,0-.1,0-.1.1c0,0,0,.1,0,.1c.1,0,.3,0,.4,0c.1,0,.3,0,.4,0c.1,0,.3,0,.4,0c.1,0,.3,0,.4,0c0,0,0-.1,0-.1c0-.1,0-.1-.1-.1c-.2,0-.3-.1-.4-.1C29.2,44.5,29.2,44.4,29.2,44.3V40.8c0-.1,0-.2.1-.2"/><path d="M33.3,40.6c.1,0,.3,0,.3,0c.1,0,.2.1,.2.1s.1.1,.2.2c0,.1.1,.2.2,.3c0,0,0,0,0,0s0,0,.1,0c0,0,.1,0,.1,0c0,0,0,0,.1,0c-.1-.2-.1-.3-.1-.4C34.3,40.8,34.3,40.7,34.3,40.6c0-.1,0-.2-.1-.2c0,0-.1-.1-.1-.1c0,0-.1,0-.1,0c-.1,0-.1,0-.2,0c-.1,0-.1,0-.2,0c-.1,0-.1,0-.2,0H31.1c-.1,0-.1,0-.2,0C30.8,40.3,30.8,40.3,30.7,40.3C30.6,40.3,30.6,40.3,30.5,40.3c-.1,0-.1,0-.1,0c0,0-.1,0-.1.1c0,0,0,.1-.1.2c0,.1,0,.2-.1.3s-.1.3-.1.4c0,0,.1,0,.1,0c0,0,0,0,.1,0c0,0,0,0,0,0c.1-.1.1-.2.2-.3c.1-.1.1-.2.2-.2c.1-.1.1-.1.2-.1c.1,0,.2,0,.3,0h.7v3.7c0,.1,0,.2-.1.2C31.7,44.6,31.6,44.6,31.4,44.6c0,0-.1,0-.1.1c0,0,0,.1,0,.1c.1,0,.3,0,.5,0c.2,0,.3,0,.5,0c.2,0,.3,0,.5,0c.2,0,.3,0,.5,0c0,0,0-.1,0-.1c0-.1,0-.1-.1-.1C32.9,44.6,32.8,44.6,32.7,44.5C32.6,44.5,32.6,44.4,32.6,44.3V40.6h.7z"/><path d="M35.4,43.8c0,.2.1,.4.3,.6c.1.2,.3.3,.6.4c.2.1,.6.1,1,.1c.3,0,.6,0,.9-.1c.2-.1.4-.2.6-.4c.1-.2.2-.3.3-.6c.1-.2.1-.5.1-.7V40.8c0-.1,0-.2.1-.2c.1,0,.2-.1.4-.1c0,0,0,0,.1,0c0,0,0,0,0-.1c0,0,0-.1,0-.1c-.1,0-.2,0-.3,0c-.1,0-.2,0-.3,0c-.1,0-.2,0-.3,0C38.3,40.3,38.2,40.3,38.1,40.3c0,0,0,.1,0,.1c0,.1,0,.1.1,.1c.2,0,.3.1,.4.1c.1,0,.1.1,.1.2v2.2c0,.3,0,.5-.1.7c-.1.2-.1.3-.2.5C38.2,44.3,38,44.4,37.9,44.4c-.2.1-.4.1-.7.1c-.5,0-.8-.1-1-.4C36,43.9,35.9,43.5,35.9,43V40.8c0-.1,0-.2.1-.2c.1,0,.2-.1.4-.1c0,0,.1,0,.1-.1c0,0,0-.1,0-.1c-.1,0-.3,0-.4,0c-.2,0-.3,0-.4,0c-.1,0-.3,0-.4,0c-.1,0-.3,0-.4,0c0,0,0,.1,0,.1c0,.1,0,.1.1,.1c.2,0,.3.1,.4.1c.1,0,.1.1,.1.2v2.3c0,.2,0,.4.1,.6"/><path d="M43,40.6c.1,0,.3,0,.3,0c.1,0,.2.1,.2.1c.1.1,.1.1,.2.2c0,.1.1,.2.2,.3c0,0,0,0,0,0s0,0,.1,0c0,0,.1,0,.1,0c0,0,0,0,.1,0C44.1,41.2,44.1,41,44,40.9C44,40.8,44,40.7,44,40.6C44,40.5,43.9,40.4,43.9,40.4c0,0-.1-.1-.1-.1c0,0-.1,0-.1,0c-.1,0-.1,0-.2,0c-.1,0-.1,0-.2,0c-.1,0-.1,0-.2,0H40.8c-.1,0-.1,0-.2,0C40.5,40.3,40.5,40.3,40.4,40.3C40.3,40.3,40.3,40.3,40.2,40.3c-.1,0-.1,0-.1,0c0,0-.1,0-.1.1c0,0,0,.1-.1.2c0,.1,0,.2-.1.3s-.1.3-.1.4c0,0,.1,0,.1,0c0,0,0,0,.1,0c0,0,0,0,0,0c.1-.1.1-.2.2-.3c0-.1.1-.2.2-.2c.1-.1.2-.1.2-.1c.1,0,.2,0,.3,0H41.6v3.7c0,.1,0,.2-.1.2C41.4,44.6,41.2,44.6,41,44.6c0,0-.1,0-.1.1c0,0,0,.1,0,.1C41.1,44.8,41.3,44.8,41.5,44.8c.2,0,.3,0,.5,0c.2,0,.3,0,.5,0c.2,0,.3,0,.5,0c0,0,0-.1,0-.1c0-.1,0-.1-.1-.1C42.6,44.6,42.5,44.6,42.4,44.5C42.3,44.5,42.3,44.4,42.3,44.3V40.6H43z"/><path d="M44.9,44.5c-.1,0-.2.1-.4.1C44.5,44.6,44.5,44.7,44.5,44.7c0,0,0,.1,0,.1c.1,0,.3,0,.4,0c.2,0,.3,0,.4,0h1.5c.1,0,.1,0,.2,0c.1,0,.2,0,.2,0s.2,0,.2,0c.1,0,.1,0,.2,0c0,0,.1,0,.1-.1c0-.1.1-.2.1-.3c0-.1.1-.2.1-.3C48,44,48.1,43.9,48.1,43.8C48.1,43.8,48,43.8,48,43.7C48,43.7,48,43.7,48,43.7c-.1,0-.1,0-.1,0C47.8,43.9,47.7,44,47.7,44.1c-.1.1-.1.2-.2.2c-.1.1-.2.1-.3.2c-.1,0-.2.1-.3.1H46.5c-.3,0-.5,0-.6,0C45.8,44.5,45.7,44.4,45.7,44.3V42.7h1.1c.1,0,.2,0,.2.1c0,.1.1,.2.1,.3c0,.1.1,.1.1,.1c0,0,.1,0,.1,0C47.3,43.1,47.3,42.9,47.3,42.8C47.3,42.7,47.3,42.6,47.3,42.5c0-.1,0-.2,0-.3c0-.1,0-.2,0-.3C47.3,41.9,47.3,41.8,47.2,41.8C47.2,41.8,47.2,41.8,47.2,41.8c-.1,0-.1,0-.1.1c0,.1-.1.2-.1.3c0,.1-.1.1-.2.1H45.7V40.6h1c.1,0,.3,0,.3,0c.1,0,.2.1,.2.1c.1.1,.1.1,.2.2c.1.1,.1.2,.2.3c0,0,.1.1,.1.1c0,0,.1,0,.1,0C47.8,41.2,47.8,41.1,47.8,41C47.7,40.9,47.7,40.8,47.7,40.7C47.7,40.6,47.7,40.5,47.7,40.4c0-.1-.1-.1-.1-.1c-.1,0-.2,0-.3,0c-.2,0-.3,0-.5,0H45.4c-.1,0-.2,0-.4,0C44.9,40.3,44.7,40.3,44.5,40.3c0,0,0,0,0,.1c0,0,0,0,0,.1c0,.1,0,.1.1,.1c.2,0,.3.1,.4.1c.1,0,.1.1,.1.2v3.5c0,.1,0,.2-.1.2"/><path d="M88.6,40.5V34.9H82.6c-.2.1-.4.2-.6.3v5.3h6.6zM82.7,33.6h5.6c.6-1,.9-1.5,1-1.6C89.4,31.9,89.6,31.8,89.9,31.8c.6,0,1.4.4,2.7,1.2c1.2.8,1.9,1.4,1.9,1.7c0,.3-.4.6-1.2.8v4.9c0,.4,0,.8,0,1.1l.1.8c0,.2,0,.3-.1.3c-.1.1-.4.2-.9.4c-.6.2-1.2.3-1.8.4c-.7.1-1.1.1-1.4.1c-.2,0-.4,0-.5-.1C88.7,43.5,88.6,43.3,88.6,43.1V41.7h-6.6v1.7c0,.2-.1.4-.3.5C81.5,44.1,81,44.2,80.2,44.4c-.8.2-1.6.3-2.3.3c-.2,0-.3-.1-.2-.4c.1-.6.1-1.5.1-2.8V34.8c0-1.1,0-2.1-.1-3.2c1.7.5,3.3,1.1,4.9,1.8l.1.2zM86.4,20.9H77.5c-.5,0-1,.1-1.4.4L75.1,19.6c.6.1,1.2.1,1.9.1h9.7C87.1,18.3,87.3,16.4,87.3,14c1.8.1,3.2.3,4.2.4c1.1.2,1.7.3,1.9.4c.2.1,.3.3,.3.5c0,.2-.1.4-.4.5c-.2.2-.4.5-.6.9c-.2.4-.5,1.4-1.1,3h7.6c.7-1.1,1.2-1.9,1.5-2.4c.4-.5.6-.7.8-.7c.4,0,1.2.6,2.5,1.7c1.3,1.2,2,1.9,2,2.2c0,.3-.3.4-.8.4H91.2l-.3.8c6.7.6,10.1,2.1,10.1,4.5c0,.7-.3,1.4-.8,1.9c-.6.5-1.2.8-2,.8c-.8,0-1.4-.5-1.9-1.6c-.9-2-2.9-3.6-5.8-4.8c-.9,1.5-2.2,2.8-3.9,3.8c-1.7,1-4.1,1.9-7.1,2.7H101.5c.7-1.1,1.2-1.9,1.6-2.4c.4-.5.6-.8.8-.8c.4,0,1.2.6,2.5,1.8c1.3,1.2,1.9,1.9,1.9,2.2s-.3.4-.8.4h-5.1c-.1.1-.3.3-.8.5V45.2c0,.8-.1,1.4-.2,1.9c-.2.5-.5,1-.9,1.3c-.4.4-1,.6-1.9.9c-.9.2-1.7.4-2.6.4c-.7,0-1-.3-1.1-1C95.1,47.7,94.7,47.1,94.1,46.7C93.4,46.3,92.4,45.9,90.9,45.6C90.6,45.5,90.4,45.4,90.4,45.3c0-.1.3-.2.8-.2c.5,0,1,0,1.3,0c1.3,0,2.3-.1,3.2-.3c.9-.2,1.3-.7,1.3-1.6V30.4H75.3c-.5,0-1,.1-1.4.4L73,29.1c.6.1,1.2.1,1.9.1h2.2c2.7-1.1,4.8-2.3,6.3-3.6c1.5-1.3,2.5-2.8,3.1-4.6z"/><path d="M133.6,30.2h2V25.5h-2v4.7zm2-10.7H134.3c-.1.4-.3.7-.6.8v3.9h2V19.5zm-7.7,10.7h2V25.5h-2v4.7zM129.9,19.5h-1.4c-.1.4-.3.6-.6.8v4h2V19.5zm-7.5,10.7h1.8V25.5h-1.8v4.7zm1.8-10.7H123.1c-.1.4-.3.7-.6.9v3.9h1.8V19.5zm-5.6,1.4c-1.1,1.1-2.4,2.2-3.9,3.4c.2,0,.6,0,1.1,0h2.9V20.8zm2.3-2.6h17.8c.4-.8.8-1.4,1.1-1.9c.3-.5.5-.8.6-.9c.1-.1.2-.1.3-.1c.3,0,1.2.5,2.5,1.6c1.4,1.1,2,1.8,2,2.2c0,.2-.2.3-.7.3h-4.4c-.1.4-.3.7-.6.8v3.9h.3c.2-.3.4-.8.7-1.4c.3-.6.5-.9.6-1c.1-.1.2-.1.3-.1c.3,0,1.1.5,2.3,1.4c1.2,1,1.8,1.6,1.8,2c0,.2-.2.3-.7.3h-5.4v4.7h.9c.4-.7.7-1.2,1.1-1.8c.4-.5.6-.8.7-.9c.1-.1.2-.1.3-.1c.4,0,1.2.5,2.5,1.5c1.3,1,2,1.7,2,2c0,.3-.3.5-.8.5h-7.1c.7.2,1,.3,1,.5c0,.2-.2.4-.7.6V34.7h.8c.8-1.6,1.3-2.4,1.7-2.4c.2,0,1,.5,2.1,1.4c1.2.9,1.8,1.5,1.8,1.8c0,.3-.3.5-.9.5H139.5V40.4h1.1c.2-.5.5-1,.8-1.4c.3-.5.5-.8.6-.9c.1-.1.2-.2.4-.2c.2,0,1,.5,2.1,1.4c1.2,1,1.7,1.6,1.7,1.9c0,.3-.3.4-.8.4H139.5v2.9c0,1.2,0,2.1,0,2.6l0,1.4c0,.2-.1.4-.3.5c-.2.2-.6.3-1.2.4c-.6.1-1.3.2-2.1.2c-.5,0-.7-.2-.7-.7V41.6h-2.3l-.6,1C132.3,42.9,132.1,43,131.9,43c-.2,0-.8-.2-1.6-.5c-.8-.3-1.4-.5-1.6-.7C128.4,41.8,128.3,41.6,128.3,41.5c0-.1.1-.3.3-.5c.2-.2.4-.5.5-.8c.1-.3.2-.8.3-1.5c.1-.7.1-1.3.1-1.9c.9.1,1.8.3,2.7.5c.9.2,1.4.3,1.5.4c.1.1,.2.2,.2.4c0,.3-.3.6-.9.7L132.9,40.4h2.4V35.9h-4.6c-.5,0-1,.1-1.4.4l-1-1.8c.6.1,1.2.1,1.9.1h5c0-1.1,0-2.2-.1-3.3H123.1c.2.1,.3.3,.3.4c0,.2-.2.3-.5.4c-.4.1-1.1,1-2.2,2.5h2.6c.7-.9,1.2-1.4,1.4-1.4c.3,0,1,.4,2.1,1.3c1.2.8,1.7,1.4,1.7,1.7c0,.3-.2.5-.7.5c-.2,0-.3.1-.5.3c-.1.2-.3.4-.5.9c-.7,1.8-1.5,3.3-2.4,4.6c-.9,1.2-2,2.3-3.3,3.2c-1.3.9-3,1.6-5.1,2.3c-2.1.6-3.6.9-4.5.9c-.2,0-.3,0-.3-.1c0-.1.2-.2.6-.3c3.5-1.2,6.1-2.8,7.9-4.8c1.8-2,2.9-4.5,3.5-7.7h-3.6c-.3.3-.7.8-1.4,1.5c2,.6,3,1.5,3,2.6c0,.7-.2,1.2-.6,1.7c-.4.5-.9.7-1.6.7c-.6,0-1.1-.2-1.4-.5c-.3-.4-.4-.8-.3-1.3c.1-.5.1-.9.1-1.3c0-.4-.1-.7-.2-.9c-1.3,1.2-2.6,2.3-3.9,3.2c-1.3.9-2,1.3-2.3,1.3c0,0,0,0,0,0c0-.1.1-.2.4-.5C114.4,39.4,116.5,35.8,117.9,31.4h-4.2c-.5,0-1,.1-1.4.4l-1-1.8c.6.1,1.2.1,1.9.1h5.5V25.5h-2.4c-.5,0-1,.1-1.4.4l-.7-1.2-2,1.4c-.4.3-.6.4-.7.4s-.2,0-.2-.1s.1-.2.3-.4c3.1-3,5.3-6.9,6.5-11.7c1,.1,2.1.3,3.4.5c1.2.2,1.9.4,2.1.5c.2.1,.2.2,.2.3c0,.2-.2.4-.6.5c-.4.1-1.2.9-2.3,2.3z"/><path d="M169.1,20c0,.8-.2,1.5-.7,2.2c-.5.7-1.1,1-2,1c-.8,0-1.5-.3-1.8-.9c-.4-.6-.5-1.2-.5-1.9C164.2,19.8,164.2,19.2,164.2,18.6c0-.6-.1-1.2-.4-1.8c-.3-.6-.7-1.1-1.1-1.6c-.5-.4-.7-.7-.7-.8c0-.1.1-.1.2-.1c.3,0,1.1.2,2.3.7c1.3.5,2.3,1.2,3.3,2.1c.9.9,1.4,1.9,1.4,2.9zm-7.4,1.1c0,.8-.3,1.5-.9,2.1c-.6.6-1.2.8-1.8.8c-.6,0-1.1-.2-1.6-.6c-.4-.4-.6-1-.6-1.9c0-1.3-.1-2.2-.4-2.9c-.3-.7-.7-1.3-1.3-1.8C154.5,16.3,154.2,16,154.2,15.9c0-.1.1-.1.2-.1c.3,0,1.2.2,2.7.6c1.5.4,2.6,1,3.4,1.7c.8.7,1.2,1.8,1.2,3.1zm14.7,15.9c.9-1.5,1.5-2.4,1.7-2.7c.2-.3.4-.4.6-.4c.3,0,1.3.6,2.9,1.7c1.6,1.1,2.4,1.9,2.4,2.2c0,.3-.3.5-.8.5H168.8V44.6c0,1.6-.2,2.7-.7,3.2c-.5.5-1.3.9-2.5,1.2c-1.2.3-2,.4-2.3.4c-.6,0-.8-.3-.9-.8c-.1-1-.3-1.6-.8-2.1c-.5-.4-1.4-.8-2.9-1.2C158.1,45.2,157.9,45.1,157.9,45c0-.1.2-.1.5-.1l2.7.1c1,0,1.6-.1,2.1-.2c.4-.1.7-.3.9-.6c.1-.3.2-.7.2-1.2V38.2H151.1c-.5,0-1,.1-1.4.4l-1-1.8c.6.1,1.2.1,1.9.1h13.6c0-.8,0-1.7-.1-2.9c1.5.1,2.8.3,3.7.5c.6-1,1.3-2.1,1.9-3.3H158c-.5,0-1,.1-1.4.4l-1-1.8c.4.1,1,.1,1.9.1h11.9c.7-1,1.2-1.5,1.3-1.6c.2-.1.3-.2.5-.2c.5,0,1.8.9,3.8,2.6c.5-.8,1.1-2.3,1.8-4.5H154.2c.2.7,.3,1.4.3,2.1c0,1.3-.3,2.2-1,2.8c-.7.6-1.4.8-2.1.8c-.7,0-1.3-.2-1.8-.7C149.2,30.8,148.9,30.3,148.9,29.7c0-.8.4-1.5,1.1-1.9c.7-.5,1.2-.9,1.6-1.3c.4-.4.6-.8.7-1.2c.1-.4.1-1,.1-1.9c0-.3,0-.4.1-.4c.1,0,.3.2,.5.7c.3.4,.5.9,.7,1.3h15.3C170.6,22,171.9,18.5,172.8,14.4c1.2.5,2.3,1,3.4,1.6c1.1.6,1.9,1.1,2.3,1.4s.6.6,.6.8c0,.2-.3.4-1,.4c-.5,0-1.2.4-2.1,1.1c-1,.8-2.8,2.5-5.5,5.2h5.5c.2-.2.4-.6.8-1c.3-.5.6-.7.7-.9c.1-.1.2-.2.4-.2c.3,0,.9.3,1.8,1c1,.7,1.9,1.3,2.6,2c.8.7,1.2,1.2,1.2,1.6c0,.3-.3.5-.8.5l-.9,0c-2.4,0-4.5,1-6.4,3c.6.5,.9.9,.9,1.2c0,.3-.1.4-.3.5c-.2.1-.5.1-.8.1C174.9,32.7,174.5,32.6,174.1,32.6c-.5,0-1.1.2-1.9.5c-.8.3-1.9.9-3.3,1.6c.6.1,.8.3,.8.5c0,.2-.3.5-.9.8v.9h7.6z"/><path d="M207.1,20.4c-.5-.4-.7-1-.7-1.9c0-.9-.2-1.6-.6-2.1c-.4-.6-1-1-1.9-1.4c-.2-.1-.3-.2-.3-.3c0-.2.6-.3,1.8-.3c2,0,3.5.3,4.5.9c1,.6,1.5,1.4,1.5,2.5c0,1.1-.5,1.9-1.4,2.5h3.5c.7-1.1,1.1-1.7,1.2-1.8c.1-.1.2-.2.3-.2c.4,0,1.3.6,2.8,1.8c1.5,1.2,2.3,2,2.3,2.6c0,.2-.1.4-.3.5c-.2.1-.5.2-.9.2h-.6c-1.1,0-1.9.1-2.5.4c-.6.3-1.1.7-1.7,1.3c.5.4,1,.8,1.5,1.3c.5.5,.8.9,.8,1.1c0,.3-.2.4-.7.4H203.2c-.6,0-1.1.1-1.6.2l-.6-1.6c.6.1,1.2.2,1.9.2h8.1c.9-1.4,1.3-2.1,1.5-2.3c.1-.1.3-.2.4-.2c.2,0,.4.1,.8.4c.3-1.1.5-2.1.7-3H203.1c.1.3,.1.6,.1.9c0,1-.3,1.9-.9,2.6c-.6.7-1.2,1.1-2,1.1c-.7,0-1.3-.2-1.7-.6c-.4-.4-.6-.9-.6-1.6c0-.7.3-1.3.8-1.8c1.1-1,1.6-1.9,1.6-2.8c0-.4-.1-.8-.2-1.1c-.1-.3-.2-.5-.2-.6c0-.1,0-.2.1-.2c.2,0,.6.3,1.1.8c.6.5,1,1.2,1.4,1.9h4.4zm-15.6,17.2c.4.1,.7.1,1,.1c1.8,0,2.7-.9,2.7-2.7c0-1.8-.1-3.1-.4-3.9c-.3-.8-.9-1.7-1.9-2.6c.8-3.9,1.4-7,1.7-9.2h-2.3c-.2.2-.4.3-.6.4v17.9zM192,18h2.1c.3-.7.6-1.2.8-1.5c.2-.3.4-.4.6-.4c.4,0,1.3.4,2.7,1.3c1.4.9,2,1.5,2,1.8c0,.3-.2.5-.7.7c-.5.2-.8.3-1,.6c-.2.2-.6,1-1.4,2.3c-.8,1.3-1.7,3.1-2.9,5.3c2.1,1.4,3.5,2.9,4.2,4.4h15.3c.3-.5.7-1.1,1.1-1.7c.4-.6.7-.9.8-1c.1-.1.2-.2.4-.2c.3,0,1,.5,2.3,1.5c1.3,1,1.9,1.7,1.9,2c0,.3-.3.5-.8.5H213.6c-.2.2-.5.4-.9.6v9.6c0,.5.1,.8.2,.9c.2.1,.5.2,.9.2c1.2,0,2-.6,2.5-1.7c.5-1.2,1-2.6,1.4-4.4c.1-.3.2-.4.3-.4c.2,0,.2.2,.2.5c-.1.8-.1,1.6-.1,2.4s.1,1.5.4,2.1c.3.6,.8,1.1,1.6,1.4c.5.2,.7.6,.7,1.1c0,.8-.5,1.5-1.6,2.1s-2.9,1-5.5,1c-1.5,0-2.6-.1-3.3-.3c-.8-.2-1.3-.5-1.7-1c-.4-.5-.6-1.5-.6-3.1V33.7h-1c-.3.3-.5.8-.6,1.4c-.1,2.2-.4,4.1-1,5.8c-.6,1.7-1.5,3.1-2.8,4.3c-1.3,1.2-3,2.2-5.2,3.1c-2.2.8-3.9,1.3-5.2,1.3c-.2,0-.3-.1-.3-.2c0-.1.2-.2.6-.4c2.8-1.1,4.9-2.2,6.1-3.4c1.3-1.2,2.2-2.7,2.7-4.5c.5-1.8.7-4.3.7-7.3H199c.2.9,.3,1.8.3,2.9c0,1.5-.5,2.8-1.6,3.7c-1.1.9-2.3,1.4-3.7,1.4c-.3,0-.5-.1-.6-.2c-.1-.1-.2-.3-.2-.6c-.1-1.5-.6-2.4-1.7-2.8v9.6c0,.3-.1.5-.2.6c-.2.1-.7.3-1.6.5c-.9.2-1.6.3-2.2.3c-.2,0-.3,0-.3-.1c-.1-.1-.1-.2-.1-.3l0-1.5c.1-1.1.1-2.3.1-3.6V20c0-1.8-.1-3.1-.2-3.9c1.7.4,3.3,1,5,1.9z"/></g></svg>